<?xml version="1.0" encoding="UTF-8"?>
<svg xmlns="http://www.w3.org/2000/svg" xmlns:xlink="http://www.w3.org/1999/xlink" width="300px" height="67px" viewBox="0 0 300 67" version="1.1">
<g id="surface1">
<path style=" stroke:none;fill-rule:nonzero;fill:rgb(0%,0%,0%);fill-opacity:1;" d="M 261.96875 39.886719 C 261.992188 39.871094 262.007812 39.84375 262.007812 39.8125 C 262.011719 39.785156 262 39.753906 261.976562 39.730469 C 259.433594 37.136719 256.847656 34.558594 254.226562 32 C 250.765625 28.621094 248.542969 25.082031 248.292969 20.457031 C 247.964844 14.449219 250.128906 9.648438 254.785156 6.058594 C 259.832031 2.160156 267.164062 1.664062 272.734375 4.929688 C 282.042969 10.390625 283.902344 22.902344 276.210938 30.699219 C 275.328125 31.597656 274.359375 31.625 273.304688 30.789062 C 273.273438 30.765625 273.25 30.742188 273.226562 30.71875 C 272.28125 29.761719 272.289062 28.757812 273.238281 27.714844 C 275.9375 24.742188 277.082031 21.445312 276.664062 17.824219 C 275.667969 9.132812 266.160156 4.273438 258.574219 8.613281 C 252.914062 11.851562 250.914062 18.796875 253.773438 24.675781 C 254.347656 25.847656 255.382812 27.171875 256.878906 28.648438 C 260.410156 32.132812 263.871094 35.574219 267.265625 38.964844 C 267.972656 39.671875 268.722656 40.335938 269.519531 40.957031 C 271.078125 42.179688 272.207031 43.96875 272.34375 45.953125 C 272.589844 49.46875 271.148438 52 268.027344 53.539062 C 265.886719 54.601562 262.648438 54.339844 260.6875 52.898438 C 256.726562 49.984375 256.347656 44.847656 259.816406 41.359375 C 260.453125 40.722656 261.253906 40.421875 261.96875 39.886719 Z M 261.96875 39.886719 "/>
<path style=" stroke:none;fill-rule:nonzero;fill:rgb(0%,0%,0%);fill-opacity:1;" d="M 0 34.855469 L 0 32.472656 C 0.105469 31.714844 0.191406 30.945312 0.257812 30.171875 C 0.4375 27.945312 0.921875 25.796875 1.707031 23.722656 C 2.027344 22.875 2.390625 22.050781 2.796875 21.242188 C 3.191406 20.453125 3.605469 19.320312 4.253906 18.691406 C 4.597656 18.359375 4.597656 17.96875 4.875 17.59375 C 8.449219 12.761719 13.097656 9.65625 18.824219 8.285156 C 21.746094 7.578125 24.035156 7.28125 25.691406 7.394531 C 26.9375 7.472656 28.167969 7.542969 29.386719 7.597656 C 30.9375 7.667969 32.304688 8.207031 33.8125 8.453125 C 34.410156 8.554688 34.8125 8.929688 35.375 8.953125 C 35.542969 8.957031 35.695312 8.996094 35.84375 9.066406 L 40.0625 11.136719 C 40.179688 11.195312 40.273438 11.28125 40.335938 11.390625 C 40.511719 11.699219 40.777344 11.890625 41.128906 11.96875 C 41.3125 12.007812 41.46875 12.09375 41.601562 12.230469 C 42.199219 12.84375 42.867188 13.414062 43.597656 13.941406 C 44.132812 14.328125 44.589844 14.785156 44.976562 15.3125 C 45.339844 15.820312 45.734375 16.3125 46.15625 16.796875 C 47.253906 18.058594 47.984375 19.722656 48.867188 21.210938 C 49.027344 21.488281 49.238281 22.097656 49.496094 23.03125 C 49.648438 23.59375 50.125 24.394531 50.175781 25.199219 C 50.1875 25.378906 50.101562 25.46875 49.917969 25.46875 L 36.804688 25.46875 C 36.648438 25.46875 36.53125 25.398438 36.453125 25.261719 C 34.605469 21.855469 31.949219 19.820312 28.480469 19.160156 C 24.097656 18.324219 20.394531 19.265625 17.371094 21.984375 C 15.636719 23.550781 14.414062 25.429688 13.707031 27.621094 C 13.050781 29.636719 12.757812 31.882812 12.820312 34.363281 C 12.871094 36.273438 13.167969 38.058594 13.714844 39.714844 C 14.554688 42.25 16.046875 44.386719 18.1875 46.128906 C 18.363281 46.269531 18.554688 46.371094 18.769531 46.425781 C 18.933594 46.46875 19.0625 46.558594 19.15625 46.699219 C 19.246094 46.832031 19.367188 46.933594 19.515625 47.003906 C 21.808594 48.121094 24.097656 48.605469 26.390625 48.464844 C 31.019531 48.179688 34.367188 46.058594 36.429688 42.105469 C 36.503906 41.964844 36.652344 41.875 36.8125 41.875 L 49.898438 41.875 C 50.011719 41.875 50.117188 41.929688 50.179688 42.019531 C 50.246094 42.109375 50.261719 42.226562 50.226562 42.332031 C 49.929688 43.152344 49.632812 44.007812 49.332031 44.894531 C 48.996094 45.863281 48.542969 46.855469 47.96875 47.871094 C 47.882812 48.023438 47.765625 48.136719 47.613281 48.210938 C 47.472656 48.28125 47.4375 48.394531 47.519531 48.550781 C 47.589844 48.695312 47.550781 48.867188 47.421875 48.964844 C 47.054688 49.246094 46.765625 49.601562 46.550781 50.023438 C 46.105469 50.902344 45.292969 51.289062 44.851562 52.105469 C 44.695312 52.402344 44.480469 52.644531 44.207031 52.839844 C 43.195312 53.554688 42.445312 54.507812 41.429688 55.207031 C 39.8125 56.324219 38.089844 57.265625 36.257812 58.023438 C 35.796875 58.210938 35.398438 58.144531 34.980469 58.441406 C 34.804688 58.566406 34.613281 58.648438 34.402344 58.683594 C 33.570312 58.835938 32.738281 59.023438 31.898438 59.253906 C 31.148438 59.457031 30.359375 59.597656 29.53125 59.667969 C 26.933594 59.894531 24.394531 59.886719 21.921875 59.648438 C 21.75 59.632812 21.589844 59.582031 21.441406 59.496094 C 21.234375 59.382812 21.023438 59.363281 20.808594 59.4375 C 20.695312 59.472656 20.5625 59.472656 20.414062 59.433594 L 15.292969 58.027344 C 15.234375 58.015625 15.1875 57.972656 15.167969 57.914062 C 15.082031 57.667969 14.929688 57.558594 14.71875 57.582031 C 14.550781 57.601562 14.386719 57.574219 14.234375 57.496094 C 9.152344 54.9375 5.402344 51.300781 2.980469 46.578125 C 1.179688 43.0625 0.1875 39.15625 0 34.855469 Z M 0 34.855469 "/>
<path style=" stroke:none;fill-rule:nonzero;fill:rgb(0%,0%,0%);fill-opacity:1;" d="M 118.625 28.453125 L 135.15625 28.453125 C 135.246094 28.453125 135.320312 28.527344 135.320312 28.617188 L 135.320312 38.039062 C 135.320312 38.128906 135.246094 38.203125 135.15625 38.203125 L 118.628906 38.203125 C 118.539062 38.203125 118.464844 38.277344 118.464844 38.367188 L 118.464844 49.28125 C 118.464844 49.371094 118.539062 49.445312 118.628906 49.445312 L 137.339844 49.445312 C 137.429688 49.445312 137.503906 49.519531 137.503906 49.613281 L 137.496094 59.378906 C 137.496094 59.46875 137.421875 59.542969 137.332031 59.542969 L 106.128906 59.542969 C 106.039062 59.542969 105.964844 59.46875 105.964844 59.378906 L 105.964844 8.195312 C 105.964844 8.105469 106.039062 8.03125 106.128906 8.03125 L 137.339844 8.027344 C 137.429688 8.027344 137.503906 8.101562 137.503906 8.191406 L 137.5 17.847656 C 137.5 17.9375 137.425781 18.011719 137.335938 18.011719 L 118.632812 18.011719 C 118.542969 18.011719 118.46875 18.085938 118.46875 18.175781 L 118.457031 28.285156 C 118.457031 28.378906 118.53125 28.453125 118.625 28.453125 Z M 118.625 28.453125 "/>
<path style=" stroke:none;fill-rule:nonzero;fill:rgb(0%,0%,0%);fill-opacity:1;" d="M 86.640625 39.199219 L 98.257812 59.152344 C 98.40625 59.414062 98.332031 59.542969 98.03125 59.542969 L 84.582031 59.542969 C 84.410156 59.542969 84.292969 59.484375 84.230469 59.363281 L 73.753906 40.34375 C 73.675781 40.203125 73.558594 40.109375 73.402344 40.070312 C 72.921875 39.941406 72.46875 40.1875 72 39.914062 C 71.875 39.847656 71.738281 39.808594 71.597656 39.808594 L 58.367188 39.808594 C 58.175781 39.808594 58.019531 39.652344 58.019531 39.460938 L 58.046875 8.511719 C 58.046875 8.238281 58.183594 8.097656 58.457031 8.09375 C 65.433594 8.027344 72.394531 8 79.34375 8.015625 C 80.703125 8.019531 82.035156 8.117188 83.34375 8.3125 C 84.917969 8.546875 86.277344 8.867188 87.417969 9.273438 C 88.902344 9.808594 90.296875 10.519531 91.597656 11.410156 C 92.246094 11.855469 92.878906 12.351562 93.496094 12.898438 C 95.367188 14.554688 96.84375 17.542969 97.4375 19.734375 C 98.492188 23.644531 98.140625 27.523438 96.378906 31.367188 C 96.078125 32.027344 95.496094 32.308594 95.335938 32.980469 C 95.300781 33.132812 95.21875 33.273438 95.101562 33.378906 C 94.554688 33.878906 94.085938 34.441406 93.703125 35.070312 C 93.632812 35.183594 93.539062 35.285156 93.425781 35.363281 C 93.015625 35.660156 92.613281 35.960938 92.21875 36.261719 C 90.726562 37.414062 88.886719 38.34375 86.703125 39.042969 C 86.621094 39.070312 86.597656 39.125 86.640625 39.199219 Z M 70.527344 18.472656 L 70.527344 31.089844 C 70.527344 31.148438 70.574219 31.191406 70.628906 31.191406 L 79.089844 31.191406 C 82.472656 31.191406 85.214844 28.609375 85.214844 25.429688 L 85.214844 24.132812 C 85.214844 20.949219 82.472656 18.371094 79.089844 18.371094 L 70.628906 18.371094 C 70.574219 18.371094 70.527344 18.414062 70.527344 18.472656 Z M 70.527344 18.472656 "/>
<path style=" stroke:none;fill-rule:nonzero;fill:rgb(0%,0%,0%);fill-opacity:1;" d="M 158.46875 50.488281 L 155.464844 59.234375 C 155.402344 59.417969 155.230469 59.542969 155.035156 59.542969 L 142.347656 59.542969 C 142.292969 59.542969 142.246094 59.515625 142.21875 59.46875 C 142.195312 59.417969 142.199219 59.363281 142.230469 59.316406 C 142.535156 58.886719 142.75 58.421875 142.875 57.925781 C 142.957031 57.605469 143.058594 57.285156 143.175781 56.964844 C 147.101562 46.09375 151.066406 35.140625 155.070312 24.101562 C 155.148438 23.882812 155.207031 23.664062 155.242188 23.445312 C 155.269531 23.292969 155.316406 23.148438 155.378906 23.007812 C 155.859375 22.011719 156.289062 20.90625 156.667969 19.6875 C 156.96875 18.722656 157.296875 17.800781 157.648438 16.917969 C 157.996094 16.039062 158.328125 15.144531 158.648438 14.234375 C 159.324219 12.285156 160.050781 10.285156 160.824219 8.242188 C 160.878906 8.101562 160.984375 8.03125 161.132812 8.03125 L 175.128906 8.03125 C 175.304688 8.03125 175.421875 8.113281 175.480469 8.273438 C 175.679688 8.796875 176.019531 9.140625 176.054688 9.730469 C 176.085938 10.222656 176.472656 10.65625 176.609375 11.179688 C 176.910156 12.332031 177.304688 13.378906 177.792969 14.316406 C 177.839844 14.40625 177.863281 14.5 177.867188 14.59375 C 177.871094 14.660156 177.871094 14.726562 177.871094 14.789062 C 177.871094 14.875 177.890625 14.953125 177.925781 15.027344 C 178.507812 16.226562 178.808594 17.53125 179.308594 18.773438 C 179.859375 20.160156 180.363281 21.589844 180.816406 23.058594 C 180.886719 23.296875 180.992188 23.515625 181.128906 23.726562 C 181.195312 23.824219 181.238281 23.929688 181.257812 24.046875 C 181.328125 24.480469 181.457031 24.894531 181.652344 25.285156 C 182.03125 26.054688 182.324219 26.855469 182.53125 27.679688 C 182.691406 28.308594 183.175781 28.910156 183.164062 29.535156 C 183.160156 29.699219 183.207031 29.847656 183.304688 29.980469 C 183.550781 30.320312 183.714844 30.683594 183.796875 31.066406 C 183.875 31.414062 183.988281 31.765625 184.140625 32.125 C 184.460938 32.871094 184.730469 33.632812 184.957031 34.410156 C 185.070312 34.804688 185.222656 35.167969 185.414062 35.492188 C 185.707031 35.996094 185.65625 36.476562 185.890625 37.027344 C 186.167969 37.695312 186.4375 38.398438 186.703125 39.136719 C 187.96875 42.671875 189.265625 46.273438 190.589844 49.9375 C 190.734375 50.335938 190.972656 50.574219 190.957031 51.019531 C 190.953125 51.179688 190.988281 51.328125 191.0625 51.46875 C 191.296875 51.898438 191.5 52.367188 191.675781 52.871094 C 192.421875 55.035156 193.195312 57.15625 193.996094 59.246094 C 194.019531 59.3125 194.011719 59.386719 193.96875 59.449219 C 193.929688 59.507812 193.863281 59.542969 193.789062 59.542969 L 181.195312 59.542969 C 180.914062 59.542969 180.730469 59.410156 180.640625 59.144531 L 177.863281 50.785156 C 177.773438 50.515625 177.519531 50.335938 177.234375 50.335938 C 171.046875 50.40625 164.886719 50.390625 158.746094 50.292969 C 158.605469 50.292969 158.515625 50.355469 158.46875 50.488281 Z M 174.203125 40.222656 C 174.261719 39.835938 174.164062 39.476562 173.902344 39.140625 C 173.785156 38.988281 173.730469 38.8125 173.738281 38.617188 C 173.753906 38.285156 173.652344 37.992188 173.4375 37.730469 C 173.324219 37.597656 173.269531 37.445312 173.28125 37.273438 C 173.300781 36.921875 173.191406 36.609375 172.953125 36.332031 C 172.859375 36.214844 172.8125 36.070312 172.824219 35.917969 C 172.851562 35.589844 172.761719 35.292969 172.546875 35.027344 C 172.441406 34.902344 172.386719 34.757812 172.375 34.597656 C 172.34375 34.097656 172.167969 33.625 171.839844 33.179688 C 171.722656 33.023438 171.664062 32.828125 171.675781 32.628906 C 171.691406 32.316406 171.59375 32.039062 171.386719 31.792969 C 171.261719 31.644531 171.203125 31.46875 171.214844 31.273438 C 171.234375 30.953125 171.136719 30.664062 170.921875 30.40625 C 170.804688 30.261719 170.746094 30.097656 170.757812 29.910156 C 170.777344 29.574219 170.675781 29.273438 170.449219 29.007812 C 170.339844 28.878906 170.289062 28.730469 170.304688 28.566406 C 170.324219 28.207031 170.210938 27.882812 169.96875 27.589844 C 169.886719 27.496094 169.84375 27.382812 169.839844 27.257812 C 169.835938 27.210938 169.835938 27.164062 169.839844 27.117188 C 169.847656 27.007812 169.832031 26.902344 169.789062 26.800781 C 169.1875 25.351562 168.703125 23.917969 168.335938 22.5 C 168.195312 21.964844 168.039062 21.957031 167.863281 22.480469 L 161.820312 40.472656 C 161.761719 40.640625 161.824219 40.726562 162.003906 40.726562 L 174.316406 40.730469 C 174.410156 40.730469 174.457031 40.683594 174.449219 40.589844 C 174.445312 40.515625 174.410156 40.46875 174.339844 40.449219 C 174.246094 40.414062 174.1875 40.320312 174.203125 40.222656 Z M 174.203125 40.222656 "/>
<path style=" stroke:none;fill-rule:nonzero;fill:rgb(0%,0%,0%);fill-opacity:1;" d="M 223.160156 18.160156 L 223.167969 59.402344 C 223.167969 59.480469 223.105469 59.546875 223.023438 59.546875 L 210.695312 59.542969 C 210.617188 59.542969 210.550781 59.476562 210.550781 59.394531 L 210.550781 18.160156 C 210.550781 18.078125 210.484375 18.011719 210.402344 18.011719 L 197.046875 18.011719 C 196.964844 18.011719 196.898438 17.945312 196.898438 17.863281 L 196.910156 8.183594 C 196.910156 8.101562 196.972656 8.035156 197.054688 8.035156 L 236.675781 8.027344 C 236.753906 8.027344 236.820312 8.09375 236.820312 8.171875 L 236.804688 17.863281 C 236.804688 17.945312 236.738281 18.011719 236.65625 18.011719 L 223.308594 18.011719 C 223.226562 18.011719 223.160156 18.078125 223.160156 18.160156 Z M 223.160156 18.160156 "/>
<path style=" stroke:none;fill-rule:nonzero;fill:rgb(0%,0%,0%);fill-opacity:1;" d="M 266.773438 26.671875 C 269.15625 29.132812 271.585938 31.550781 274.074219 33.9375 C 276.445312 36.207031 278.0625 38.128906 278.929688 39.699219 C 280.382812 42.328125 281.058594 45.097656 280.953125 48.007812 C 280.75 53.878906 278.1875 58.402344 273.265625 61.570312 C 265.34375 66.675781 254.515625 63.695312 250.074219 55.285156 C 249.019531 53.292969 248.417969 51.097656 248.269531 48.703125 C 247.980469 44.078125 249.496094 39.9375 252.816406 36.28125 C 253.707031 35.300781 254.695312 35.207031 255.78125 36.003906 C 255.800781 36.019531 255.824219 36.039062 255.847656 36.0625 C 256.84375 36.949219 256.9375 37.875 256.128906 38.828125 C 254.9375 40.230469 254.035156 41.617188 253.414062 42.996094 C 250.4375 49.617188 254.574219 57.859375 261.585938 59.4375 C 264.28125 60.046875 266.796875 59.886719 269.132812 58.957031 C 275.636719 56.367188 278.441406 48.972656 275.621094 42.605469 C 275.023438 41.257812 273.859375 39.726562 272.128906 38.011719 C 267.476562 33.402344 262.910156 28.851562 258.421875 24.367188 C 257.566406 23.515625 256.960938 22.386719 256.609375 20.984375 C 255.914062 18.230469 257.253906 15.140625 259.429688 13.511719 C 264.605469 9.632812 271.976562 13.699219 271.375 20.195312 C 271.128906 22.847656 269.351562 25.210938 266.847656 26.300781 C 266.644531 26.386719 266.621094 26.511719 266.773438 26.671875 Z M 266.773438 26.671875 "/>
<path style=" stroke:none;fill-rule:nonzero;fill:rgb(0%,0%,0%);fill-opacity:1;" d="M 70.214844 51.785156 C 70.230469 47.953125 66.964844 44.835938 62.921875 44.820312 C 58.882812 44.808594 55.597656 47.902344 55.582031 51.734375 C 55.570312 55.566406 58.835938 58.683594 62.875 58.699219 C 66.914062 58.710938 70.203125 55.617188 70.214844 51.785156 Z M 70.214844 51.785156 "/>
</g>
</svg>
